<svg xmlns="http://www.w3.org/2000/svg" width="42.002" height="41.001" viewBox="0 0 42.002 41.001">
  <g id="Group_56369" data-name="Group 56369" transform="translate(0 0.002)">
    <path id="Subtraction_4" data-name="Subtraction 4" d="M-21488,14948h-32a5,5,0,0,1-5-5v-31a5.008,5.008,0,0,1,5-5h32a5.01,5.01,0,0,1,5,5v31A5.007,5.007,0,0,1-21488,14948Zm-17.021-13.937h0v2.365H-21492v-2.365Zm-5.785-12.285-3.76,3.76-1.676,1.675,5.436,5.44,1.68-1.681-2.576-2.571H-21492v-2.371h-19.713l2.582-2.577Zm5.785-3.775h0v2.366H-21492V14918Z" transform="translate(21525 -14907)" fill="#fff"/>
  </g>
</svg>
