<svg xmlns="http://www.w3.org/2000/svg" width="14.871" height="14.875" viewBox="0 0 14.871 14.875">
  <path id="Vector" d="M6.279-9.381a.771.771,0,0,0,.33-.488.839.839,0,0,0-.083-.587A9.143,9.143,0,0,1,5.4-14.24a.849.849,0,0,0-.264-.537A.779.779,0,0,0,4.577-15H.892a.8.8,0,0,0-.554.215.8.8,0,0,0-.273.529Q0-13.6,0-12.934A12.67,12.67,0,0,0,1.008-7.943,12.735,12.735,0,0,0,3.751-3.877,12.732,12.732,0,0,0,7.815-1.134a12.661,12.661,0,0,0,4.99,1.008q.661,0,1.322-.066a.8.8,0,0,0,.529-.273.8.8,0,0,0,.215-.554V-4.7a.78.78,0,0,0-.223-.562.849.849,0,0,0-.537-.264,9.138,9.138,0,0,1-3.784-1.124.838.838,0,0,0-.587-.083.771.771,0,0,0-.487.331L8.526-5.381A8.587,8.587,0,0,1,6.667-6.794,8.589,8.589,0,0,1,5.254-8.654ZM3.8-7.877l.017.05A10.506,10.506,0,0,0,5.5-5.629,10.5,10.5,0,0,0,7.7-3.943l.05.017A10.334,10.334,0,0,0,9.071-3.3l1.124-1.57a11.422,11.422,0,0,0,3.024.909v2.182h-.413A11.1,11.1,0,0,1,8.46-2.654,11.023,11.023,0,0,1,4.916-5.042,11.026,11.026,0,0,1,2.528-8.587a11.1,11.1,0,0,1-.876-4.347v-.413H3.833a11.429,11.429,0,0,0,.909,3.024L3.172-9.2A10.337,10.337,0,0,0,3.8-7.877Z" transform="translate(0 15)"/>
</svg>
