<svg xmlns="http://www.w3.org/2000/svg" width="17.356" height="17.354" viewBox="0 0 17.356 17.354">
  <path id="Path_77979" data-name="Path 77979" d="M1032.727,3889.494a4.453,4.453,0,1,1,0,8.905,4.453,4.453,0,0,1,0-8.905Zm0,7.358a2.886,2.886,0,1,0-2.906-2.906A2.9,2.9,0,0,0,1032.727,3896.852Zm5.662-7.516a1.046,1.046,0,1,1-1.051-1.041A1.045,1.045,0,0,1,1038.389,3889.336Zm2.945,1.051c.069,1.428.069,5.732,0,7.16a5.309,5.309,0,0,1-1.4,3.639,5.228,5.228,0,0,1-3.639,1.4c-1.438.079-5.732.079-7.17,0a4.8,4.8,0,0,1-5.038-5.038c-.079-1.428-.079-5.731,0-7.16a5.236,5.236,0,0,1,1.4-3.649,5.3,5.3,0,0,1,3.639-1.388c1.438-.079,5.732-.079,7.17,0a4.782,4.782,0,0,1,5.037,5.037Zm-1.864,8.677c.466-1.13.347-3.838.347-5.117,0-1.24.119-3.947-.347-5.117a2.942,2.942,0,0,0-1.626-1.626c-1.16-.466-3.877-.347-5.117-.347-1.279,0-3.986-.119-5.107.347a3.014,3.014,0,0,0-1.666,1.626c-.466,1.17-.347,3.877-.347,5.117,0,1.279-.119,3.987.347,5.117a2.96,2.96,0,0,0,1.666,1.666c1.12.456,3.828.347,5.107.347,1.24,0,3.957.109,5.117-.347A2.893,2.893,0,0,0,1039.47,3899.064Z" transform="translate(-1024.03 -3885.29)" fill="#707070"/>
</svg>
