<svg xmlns="http://www.w3.org/2000/svg" width="18.945" height="18.941" viewBox="0 0 18.945 18.941">
  <path id="Path_77980" data-name="Path 77980" d="M937.844,3885.525l-1.443.367a1.537,1.537,0,0,0-1.073,1.448,16.314,16.314,0,0,0,2.257,8.36,16.9,16.9,0,0,0,5.958,5.96,16.3,16.3,0,0,0,8.362,2.251,1.538,1.538,0,0,0,1.443-1.071l.37-1.448a17.982,17.982,0,0,1-7.548-2.737,18.345,18.345,0,0,1-8.326-13.129Zm16.207,14.686.184-.625a1.791,1.791,0,0,0-.111-1.081,1.338,1.338,0,0,0-.776-.694l-3.552-1.488a1.5,1.5,0,0,0-1.7.447l-.925,1.11A16.9,16.9,0,0,0,954.051,3900.211Zm-12.692-8.142,1.111-.922a1.5,1.5,0,0,0,.443-1.706l-1.479-3.55a1.516,1.516,0,0,0-.7-.773,1.636,1.636,0,0,0-1.036-.109l-.666.178A16.9,16.9,0,0,0,941.359,3892.07Z" transform="translate(-935.328 -3884.969)" fill="#707070"/>
</svg>
