<svg id="file-upload-svgrepo-com" xmlns="http://www.w3.org/2000/svg" width="22.147" height="24.915" viewBox="0 0 22.147 24.915">
  <path id="Path_78384" data-name="Path 78384" d="M12.942,3.405a1.384,1.384,0,0,1,1.957,0l5.537,5.537A1.384,1.384,0,1,1,18.479,10.9L15.305,7.726V20.994a1.384,1.384,0,0,1-2.768,0V7.726L9.363,10.9A1.384,1.384,0,1,1,7.405,8.942l5.537-5.537Z" transform="translate(-2.847 -3)" fill="#861a37"/>
  <path id="Path_78385" data-name="Path 78385" d="M6.768,17.384a1.384,1.384,0,0,0-2.768,0v.831a4.7,4.7,0,0,0,4.706,4.706H21.441a4.7,4.7,0,0,0,4.706-4.706v-.831a1.384,1.384,0,0,0-2.768,0v.831a1.929,1.929,0,0,1-1.938,1.938H8.706a1.929,1.929,0,0,1-1.938-1.938Z" transform="translate(-4 1.994)" fill="#861a37"/>
</svg>
