<svg xmlns="http://www.w3.org/2000/svg" width="28" height="28" viewBox="0 0 28 28">
  <g id="Group_57224" data-name="Group 57224" transform="translate(-1775 -855)">
    <g id="Group_56441" data-name="Group 56441" transform="translate(-18 389)">
      <g id="Ellipse_28" data-name="Ellipse 28" transform="translate(1793 466)" fill="none" stroke="#9f956c" stroke-width="1">
        <circle cx="14" cy="14" r="14" stroke="none"/>
        <circle cx="14" cy="14" r="13.5" fill="none"/>
      </g>
    </g>
    <g id="shield-check-svgrepo-com_1_" data-name="shield-check-svgrepo-com (1)" transform="translate(1780.75 860.75)">
      <path id="Path_82778" data-name="Path 82778" d="M12.95,10.082a.5.5,0,0,0-.745-.665l-2,2.245-.578-.648a.5.5,0,1,0-.745.665l.951,1.065a.5.5,0,0,0,.745,0Z" transform="translate(-2.174 -2.675)" fill="#9f946d"/>
      <path id="Path_82779" data-name="Path 82779" d="M8.74,1.25a6.928,6.928,0,0,0-2.181.533l-.484.166c-.986.338-1.747.6-2.292.819a5.692,5.692,0,0,0-.7.33,1.516,1.516,0,0,0-.491.416,1.55,1.55,0,0,0-.227.6,5.893,5.893,0,0,0-.083.772c-.032.59-.032,1.4-.032,2.448V8.4a7.433,7.433,0,0,0,4.891,6.8l.018.008a4.4,4.4,0,0,0,.683.254,3.52,3.52,0,0,0,.9.094,3.52,3.52,0,0,0,.9-.094,4.4,4.4,0,0,0,.683-.254l.018-.008a7.432,7.432,0,0,0,4.891-6.8V7.334c0-1.049,0-1.858-.032-2.448a5.891,5.891,0,0,0-.083-.772,1.55,1.55,0,0,0-.227-.6A1.516,1.516,0,0,0,14.4,3.1a5.694,5.694,0,0,0-.7-.33c-.545-.221-1.306-.482-2.292-.819l-.484-.166A6.928,6.928,0,0,0,8.74,1.25ZM6.8,2.757A6.469,6.469,0,0,1,8.74,2.248a6.469,6.469,0,0,1,1.943.509l.381.131c1.007.345,1.741.6,2.257.806a4.749,4.749,0,0,1,.575.268,1.092,1.092,0,0,1,.139.093.256.256,0,0,1,.036.034.271.271,0,0,1,.021.049,1.157,1.157,0,0,1,.042.165,4.94,4.94,0,0,1,.066.638c.03.56.031,1.341.031,2.412V8.4a6.439,6.439,0,0,1-4.292,5.89,3.606,3.606,0,0,1-.549.21,2.546,2.546,0,0,1-.65.063,2.546,2.546,0,0,1-.65-.063,3.606,3.606,0,0,1-.549-.21A6.439,6.439,0,0,1,3.248,8.4V7.351c0-1.071,0-1.852.031-2.412A4.951,4.951,0,0,1,3.345,4.3a1.156,1.156,0,0,1,.042-.165.272.272,0,0,1,.021-.049.257.257,0,0,1,.036-.034,1.1,1.1,0,0,1,.139-.093,4.75,4.75,0,0,1,.575-.268c.516-.209,1.25-.461,2.257-.806Z" fill="#9f946d" fill-rule="evenodd"/>
    </g>
  </g>
</svg>
