<svg xmlns="http://www.w3.org/2000/svg" width="28" height="28" viewBox="0 0 28 28">
  <g id="Group_56442" data-name="Group 56442" transform="translate(-1793 -466)">
    <path id="Ellipse_28" data-name="Ellipse 28" d="M14,1A13,13,0,0,0,4.808,23.192,13,13,0,0,0,23.192,4.808,12.915,12.915,0,0,0,14,1m0-1A14,14,0,1,1,0,14,14,14,0,0,1,14,0Z" transform="translate(1793 466)" fill="#707070"/>
    <g id="Group_57076" data-name="Group 57076" transform="translate(5285.979 23145.361)">
      <path id="document-medicine-svgrepo-com" d="M7.619,1.25h1.3a22.557,22.557,0,0,1,2.737.095,2.909,2.909,0,0,1,1.772.765A2.91,2.91,0,0,1,14.2,3.881a22.569,22.569,0,0,1,.095,2.737v2.54A22.569,22.569,0,0,1,14.2,11.9a2.91,2.91,0,0,1-.765,1.772,2.91,2.91,0,0,1-1.772.765,22.569,22.569,0,0,1-2.737.095h-1.3a22.57,22.57,0,0,1-2.737-.095,2.91,2.91,0,0,1-1.772-.765A2.909,2.909,0,0,1,2.345,11.9,22.557,22.557,0,0,1,2.25,9.159V6.619a22.557,22.557,0,0,1,.095-2.737,2.909,2.909,0,0,1,.765-1.772,2.909,2.909,0,0,1,1.772-.765A22.557,22.557,0,0,1,7.619,1.25ZM5,2.263a2.005,2.005,0,0,0-1.241.5A2.005,2.005,0,0,0,3.263,4a22.227,22.227,0,0,0-.086,2.649v2.47a22.228,22.228,0,0,0,.086,2.649,2.005,2.005,0,0,0,.5,1.241,2.005,2.005,0,0,0,1.241.5,22.222,22.222,0,0,0,2.649.086H8.889a22.223,22.223,0,0,0,2.649-.086,2.005,2.005,0,0,0,1.241-.5,2.005,2.005,0,0,0,.5-1.241,22.223,22.223,0,0,0,.086-2.649V6.654A22.222,22.222,0,0,0,13.28,4a2.005,2.005,0,0,0-.5-1.241,2.005,2.005,0,0,0-1.241-.5,22.228,22.228,0,0,0-2.649-.086H7.654A22.227,22.227,0,0,0,5,2.263Zm.333,6.861A.463.463,0,0,1,5.8,8.661h4.94a.463.463,0,0,1,0,.926H5.8A.463.463,0,0,1,5.338,9.124Zm.618,2.47a.463.463,0,0,1,.463-.463h3.705a.463.463,0,0,1,0,.926H6.418A.463.463,0,0,1,5.955,11.594Z" transform="translate(-3487.25 -22673.25)" fill="#707070" fill-rule="evenodd"/>
      <path id="Path_82744" data-name="Path 82744" d="M8.491,14.367a.463.463,0,0,1,.038.654L6.883,16.874a.463.463,0,0,1-.692,0l-.823-.926a.463.463,0,1,1,.692-.615l.477.537,1.3-1.463A.463.463,0,0,1,8.491,14.367Z" transform="translate(-3485.927 -22683.162)" fill="#707070" fill-rule="evenodd"/>
    </g>
  </g>
</svg>
