<svg xmlns="http://www.w3.org/2000/svg" width="28" height="28" viewBox="0 0 28 28">
  <g id="Group_56439" data-name="Group 56439" transform="translate(-1793 -466)">
    <path id="Ellipse_28" data-name="Ellipse 28" d="M14,1A13,13,0,0,0,4.808,23.192,13,13,0,0,0,23.192,4.808,12.915,12.915,0,0,0,14,1m0-1A14,14,0,1,1,0,14,14,14,0,0,1,14,0Z" transform="translate(1793 466)" fill="#9f956c"/>
    <path id="paperclip-svgrepo-com" d="M7.178,2.819a5.762,5.762,0,0,1,7.9,0,5.241,5.241,0,0,1,0,7.634L9.18,16.1a4.089,4.089,0,0,1-5.611,0,3.735,3.735,0,0,1,0-5.439L9.386,5.1a2.416,2.416,0,0,1,3.318,0,2.23,2.23,0,0,1,0,3.244l-5.86,5.61a.557.557,0,0,1-.77-.8l5.86-5.61a1.116,1.116,0,0,0,0-1.634,1.3,1.3,0,0,0-1.778,0L4.339,11.469a2.622,2.622,0,0,0,0,3.829,2.975,2.975,0,0,0,4.071,0l5.9-5.65a4.127,4.127,0,0,0,0-6.024,4.649,4.649,0,0,0-6.364,0L3.192,8.176a.557.557,0,0,1-.77-.8Z" transform="translate(1797.75 470.283)" fill="#9f946d" fill-rule="evenodd"/>
  </g>
</svg>
