<svg xmlns="http://www.w3.org/2000/svg" width="19.5" height="21.5" viewBox="0 0 19.5 21.5">
  <path id="document-medicine-svgrepo-com_1_" data-name="document-medicine-svgrepo-com (1)" d="M10.944,1.25h2.113a36.526,36.526,0,0,1,4.433.153,4.711,4.711,0,0,1,2.87,1.238A4.712,4.712,0,0,1,21.6,5.511a36.547,36.547,0,0,1,.153,4.433v4.113a36.546,36.546,0,0,1-.153,4.433,4.712,4.712,0,0,1-1.238,2.87,4.712,4.712,0,0,1-2.87,1.238,36.546,36.546,0,0,1-4.433.153H10.944A36.547,36.547,0,0,1,6.511,22.6a4.712,4.712,0,0,1-2.87-1.238A4.711,4.711,0,0,1,2.4,18.489a36.526,36.526,0,0,1-.153-4.433V9.944A36.527,36.527,0,0,1,2.4,5.511a4.711,4.711,0,0,1,1.238-2.87A4.711,4.711,0,0,1,6.511,1.4,36.527,36.527,0,0,1,10.944,1.25ZM6.711,2.89A3.247,3.247,0,0,0,4.7,3.7,3.247,3.247,0,0,0,3.89,5.711,35.992,35.992,0,0,0,3.75,10v4a35.994,35.994,0,0,0,.14,4.289A3.247,3.247,0,0,0,4.7,20.3a3.247,3.247,0,0,0,2.009.812A35.984,35.984,0,0,0,11,21.25h2a35.986,35.986,0,0,0,4.289-.14A3.247,3.247,0,0,0,19.3,20.3a3.247,3.247,0,0,0,.812-2.009A35.986,35.986,0,0,0,20.25,14V10a35.984,35.984,0,0,0-.14-4.289A3.247,3.247,0,0,0,19.3,3.7a3.247,3.247,0,0,0-2.009-.812A35.994,35.994,0,0,0,13,2.75H11A35.992,35.992,0,0,0,6.711,2.89ZM12,5.25a.75.75,0,0,1,.75.75V7.25H14a.75.75,0,0,1,0,1.5H12.75V10a.75.75,0,0,1-1.5,0V8.75H10a.75.75,0,0,1,0-1.5h1.25V6A.75.75,0,0,1,12,5.25ZM7.25,14A.75.75,0,0,1,8,13.25h8a.75.75,0,0,1,0,1.5H8A.75.75,0,0,1,7.25,14Zm1,4A.75.75,0,0,1,9,17.25h6a.75.75,0,0,1,0,1.5H9A.75.75,0,0,1,8.25,18Z" transform="translate(-2.25 -1.25)" fill="#861a37" fill-rule="evenodd"/>
</svg>
