<svg xmlns="http://www.w3.org/2000/svg" xmlns:xlink="http://www.w3.org/1999/xlink" width="58.242" height="55.921" viewBox="0 0 58.242 55.921">
  <defs>
    <clipPath id="clip-path">
      <rect id="Icon-267_Frame_Clip_Content_Mask_" data-name="Icon-267 [Frame Clip Content Mask]" width="58.242" height="55.921" fill="none"/>
    </clipPath>
  </defs>
  <g id="Icon-267_Clip_Content_" data-name="Icon-267 (Clip Content)" clip-path="url(#clip-path)">
    <g id="Group" transform="translate(5.824 4.66)">
      <path id="Vector" d="M14.211-24.849a23.3,23.3,0,0,0-7.385,5.01,23.3,23.3,0,0,0-5.009,7.386A23.267,23.267,0,0,0,0-3.366,23.267,23.267,0,0,0,1.817,5.721a23.3,23.3,0,0,0,5.009,7.386,23.3,23.3,0,0,0,7.385,5.01A23.258,23.258,0,0,0,23.3,19.934a23.112,23.112,0,0,0,6.313-.862,23.391,23.391,0,0,0,5.754-2.493,8.406,8.406,0,0,1-2.33-1.724,8.06,8.06,0,0,1-1.3-1.584,18.425,18.425,0,0,1-8.433,2,18.16,18.16,0,0,1-9.412-2.563A18.515,18.515,0,0,1,7.222,6.047,18.167,18.167,0,0,1,4.659-3.366,18.167,18.167,0,0,1,7.222-12.78a18.515,18.515,0,0,1,6.663-6.664A18.16,18.16,0,0,1,23.3-22.007a18.16,18.16,0,0,1,9.412,2.563,18.515,18.515,0,0,1,6.663,6.664,18.167,18.167,0,0,1,2.563,9.413v.792l4.147,4.147a23.805,23.805,0,0,0,.513-4.94,23.267,23.267,0,0,0-1.817-9.087,23.3,23.3,0,0,0-5.009-7.386,23.3,23.3,0,0,0-7.385-5.01A23.258,23.258,0,0,0,23.3-26.667a23.258,23.258,0,0,0-9.086,1.817Zm21.852,30.1a4.546,4.546,0,0,0-1.118,3.192,4.579,4.579,0,0,0,3.448,4.334,4.92,4.92,0,0,0,2.423,0A4.52,4.52,0,0,0,44.1,9.5a4.923,4.923,0,0,0,0-2.423,4.435,4.435,0,0,0-1.188-2.1L39.6,1.713ZM18.544,4.626a11.4,11.4,0,0,0-3.867,2.819l2.19,2A17.279,17.279,0,0,1,23.3,8.284a17.279,17.279,0,0,1,6.43,1.165l2.19-2A11.678,11.678,0,0,0,18.544,4.626ZM12.673-7a3.367,3.367,0,0,0-1.025,2.47,3.367,3.367,0,0,0,1.025,2.47,3.366,3.366,0,0,0,2.469,1.025,3.366,3.366,0,0,0,2.469-1.025,3.367,3.367,0,0,0,1.025-2.47A3.367,3.367,0,0,0,17.612-7a3.366,3.366,0,0,0-2.469-1.025A3.366,3.366,0,0,0,12.673-7ZM28.981-7a3.367,3.367,0,0,0-1.025,2.47,3.367,3.367,0,0,0,1.025,2.47A3.366,3.366,0,0,0,31.45-1.036,3.366,3.366,0,0,0,33.92-2.062a3.367,3.367,0,0,0,1.025-2.47A3.367,3.367,0,0,0,33.92-7,3.366,3.366,0,0,0,31.45-8.026,3.366,3.366,0,0,0,28.981-7Z" transform="translate(0 26.667)" fill="#707070"/>
    </g>
  </g>
</svg>
