<svg xmlns="http://www.w3.org/2000/svg" width="20" height="18" viewBox="0 0 20 18">
  <path id="book-open-svgrepo-com" d="M12,21a1.006,1.006,0,0,1-.27-.037h0a1,1,0,0,1-.3-.144L9.655,19.638a5.871,5.871,0,0,0-.763-.471,2,2,0,0,0-.449-.136,6.016,6.016,0,0,0-.9-.031H4.6a3.145,3.145,0,0,1-1.508-.218,1.988,1.988,0,0,1-.874-.874A3.146,3.146,0,0,1,2,16.4V5.6a3.146,3.146,0,0,1,.218-1.508,1.988,1.988,0,0,1,.874-.874A3.146,3.146,0,0,1,4.6,3h1c2.4,0,3.6,0,4.67.545A4.969,4.969,0,0,1,12,5a4.969,4.969,0,0,1,1.73-1.453C14.8,3,16,3,18.4,3h1a3.146,3.146,0,0,1,1.508.218,1.988,1.988,0,0,1,.874.874A3.145,3.145,0,0,1,22,5.6V16.4a3.145,3.145,0,0,1-.218,1.508,1.988,1.988,0,0,1-.874.874A3.145,3.145,0,0,1,19.4,19H16.453a6.019,6.019,0,0,0-.9.031,2,2,0,0,0-.449.136,5.864,5.864,0,0,0-.763.471l-1.786,1.19-.035.022A1,1,0,0,1,12,21Zm.976-10.384C13,12.311,13,14.7,13,18.132l.236-.157a6.936,6.936,0,0,1,1.072-.64,4,4,0,0,1,.9-.272A6.944,6.944,0,0,1,16.453,17H19.4c.231,0,.468,0,.589-.011C20,16.868,20,16.631,20,16.4V5.6c0-.231,0-.468-.011-.589C19.868,5,19.631,5,19.4,5h-1c-2.077,0-3.12,0-3.762.327a2.982,2.982,0,0,0-1.311,1.311C13,7.28,13,8.323,13,10.4A1,1,0,0,1,12.977,10.616ZM4.011,16.989C4.132,17,4.369,17,4.6,17H7.547a6.945,6.945,0,0,1,1.247.062,4,4,0,0,1,.9.272,6.941,6.941,0,0,1,1.072.64l.236.157c0-9.14-.02-10.891-.327-11.493A2.982,2.982,0,0,0,9.362,5.327C8.72,5,7.677,5,5.6,5h-1c-.231,0-.468,0-.589.011C4,5.132,4,5.369,4,5.6V16.4C4,16.631,4,16.868,4.011,16.989Z" transform="translate(-2 -3)" fill="#707070"/>
</svg>
