<svg xmlns="http://www.w3.org/2000/svg" width="22" height="22" viewBox="0 0 22 22">
  <g id="Group_56366" data-name="Group 56366" transform="translate(-540 -203)">
    <g id="video-file-2-svgrepo-com" transform="translate(539 202)">
      <path id="Path_78136" data-name="Path 78136" d="M12,23A11,11,0,0,1,4.222,4.222,11,11,0,1,1,19.778,19.778,10.928,10.928,0,0,1,12,23ZM12,3a9,9,0,1,0,9,9A9.01,9.01,0,0,0,12,3Z" fill="#707070"/>
    </g>
    <path id="Path_77980" data-name="Path 77980" d="M936.508,3885.23l-.677.172a.721.721,0,0,0-.5.679,7.653,7.653,0,0,0,1.058,3.921,7.927,7.927,0,0,0,2.794,2.795,7.643,7.643,0,0,0,3.922,1.056.721.721,0,0,0,.677-.5l.173-.679a8.606,8.606,0,0,1-7.445-7.441Zm7.6,6.888.087-.293a.84.84,0,0,0-.052-.507.628.628,0,0,0-.364-.325l-1.666-.7a.7.7,0,0,0-.8.209l-.434.521A7.923,7.923,0,0,0,944.109,3892.118Zm-5.952-3.818.521-.432a.7.7,0,0,0,.208-.8l-.694-1.665a.71.71,0,0,0-.33-.363.768.768,0,0,0-.486-.051l-.312.084A7.927,7.927,0,0,0,938.157,3888.3Z" transform="translate(-388.771 -3675.411)" fill="#707070"/>
  </g>
</svg>
