<svg xmlns="http://www.w3.org/2000/svg" width="12.494" height="12.494" viewBox="0 0 12.494 12.494">
  <path id="buildings-2-svgrepo-com" d="M6.886,1.25H8.108a10.649,10.649,0,0,1,1.3.046,1.583,1.583,0,0,1,.959.422,1.583,1.583,0,0,1,.422.959,10.648,10.648,0,0,1,.046,1.3v.757c.335,0,.619,0,.854.027a1.616,1.616,0,0,1,.761.243,1.6,1.6,0,0,1,.441.441,1.616,1.616,0,0,1,.243.761c.027.263.027.588.027.977v5.688h.145a.436.436,0,0,1,0,.872H1.686a.436.436,0,1,1,0-.872h.145V7.184c0-.389,0-.714.027-.977A1.616,1.616,0,0,1,2.1,5.447a1.6,1.6,0,0,1,.441-.441A1.616,1.616,0,0,1,3.3,4.763c.235-.024.519-.026.854-.027V3.98a10.649,10.649,0,0,1,.046-1.3,1.583,1.583,0,0,1,.422-.959A1.583,1.583,0,0,1,5.583,1.3,10.648,10.648,0,0,1,6.886,1.25ZM4.156,5.608c-.339,0-.578,0-.765.022a.773.773,0,0,0-.365.1.726.726,0,0,0-.2.2.773.773,0,0,0-.1.365c-.022.213-.022.494-.022.911v5.666H4.156Zm.872,7.264H7.061V11.565a.436.436,0,0,1,.872,0v1.308H9.967V4.01a10.315,10.315,0,0,0-.039-1.217.735.735,0,0,0-.174-.459A.735.735,0,0,0,9.3,2.16a10.308,10.308,0,0,0-1.217-.039H6.916A10.308,10.308,0,0,0,5.7,2.16a.735.735,0,0,0-.459.174.735.735,0,0,0-.174.459A10.307,10.307,0,0,0,5.027,4.01Zm5.811,0h1.453V7.207c0-.417,0-.7-.022-.911a.773.773,0,0,0-.1-.365.727.727,0,0,0-.2-.2.773.773,0,0,0-.365-.1c-.188-.019-.427-.022-.765-.022ZM5.9,3.429a.436.436,0,0,1,.436-.436H8.659a.436.436,0,1,1,0,.872H6.335A.436.436,0,0,1,5.9,3.429Zm0,1.743a.436.436,0,0,1,.436-.436H8.659a.436.436,0,1,1,0,.872H6.335A.436.436,0,0,1,5.9,5.173Zm0,1.743a.436.436,0,0,1,.436-.436H8.659a.436.436,0,1,1,0,.872H6.335A.436.436,0,0,1,5.9,6.916Zm0,1.743a.436.436,0,0,1,.436-.436H8.659a.436.436,0,1,1,0,.872H6.335A.436.436,0,0,1,5.9,8.659Z" transform="translate(-1.25 -1.25)" fill="#707070" fill-rule="evenodd"/>
</svg>
