<svg xmlns="http://www.w3.org/2000/svg" width="19.5" height="21.498" viewBox="0 0 19.5 21.498">
  <path id="clipboard-remove-svgrepo-com" d="M7.263,3.259A2.25,2.25,0,0,1,9.5,1.25h5a2.25,2.25,0,0,1,2.237,2.009,12.734,12.734,0,0,1,1.986.159,3.487,3.487,0,0,1,1.928.929,3.717,3.717,0,0,1,.982,2.26,27.434,27.434,0,0,1,.117,3.337v6.11a27.435,27.435,0,0,1-.117,3.337,3.717,3.717,0,0,1-.982,2.26,3.718,3.718,0,0,1-2.26.982,27.412,27.412,0,0,1-3.337.117H8.945a27.411,27.411,0,0,1-3.337-.117,3.717,3.717,0,0,1-2.26-.982,3.717,3.717,0,0,1-.982-2.26,27.418,27.418,0,0,1-.117-3.337V9.943a27.418,27.418,0,0,1,.117-3.337,3.717,3.717,0,0,1,.982-2.26,3.487,3.487,0,0,1,1.928-.929A12.735,12.735,0,0,1,7.263,3.259Zm0,1.5a11.175,11.175,0,0,0-1.717.133,2.01,2.01,0,0,0-1.138.515,2.255,2.255,0,0,0-.556,1.4A26.863,26.863,0,0,0,3.75,10v6a26.861,26.861,0,0,0,.1,3.192,2.255,2.255,0,0,0,.556,1.4,2.255,2.255,0,0,0,1.4.556,26.851,26.851,0,0,0,3.192.1h6a26.852,26.852,0,0,0,3.192-.1,2.255,2.255,0,0,0,1.4-.556,2.255,2.255,0,0,0,.556-1.4A26.876,26.876,0,0,0,20.25,16V10a26.878,26.878,0,0,0-.1-3.192,2.255,2.255,0,0,0-.556-1.4,2.01,2.01,0,0,0-1.138-.515,11.176,11.176,0,0,0-1.717-.133A2.25,2.25,0,0,1,14.5,6.75h-5A2.25,2.25,0,0,1,7.265,4.759ZM9.5,2.75a.75.75,0,0,0-.75.75v1a.75.75,0,0,0,.75.75h5a.75.75,0,0,0,.75-.75v-1a.75.75,0,0,0-.75-.75Zm-.53,8.78A.75.75,0,0,1,10.03,10.47L12,12.439l1.97-1.97A.75.75,0,0,1,15.03,11.53l-1.97,1.97,1.97,1.97A.75.75,0,0,1,13.97,16.53L12,14.561l-1.97,1.97A.75.75,0,1,1,8.97,15.47l1.97-1.97Z" transform="translate(-2.25 -1.25)" fill="#861a37" fill-rule="evenodd"/>
</svg>
