<svg xmlns="http://www.w3.org/2000/svg" width="18" height="22" viewBox="0 0 18 22">
  <g id="copy-svgrepo-com_1_" data-name="copy-svgrepo-com (1)" transform="translate(-3 -1)">
    <path id="Path_78209" data-name="Path 78209" d="M21,8a3,3,0,0,0-3-3H10A3,3,0,0,0,7,8V20a3,3,0,0,0,3,3h8a3,3,0,0,0,3-3ZM19,8a1,1,0,0,0-1-1H10A1,1,0,0,0,9,8V20a1,1,0,0,0,1,1h8a1,1,0,0,0,1-1Z" fill="#861a37" fill-rule="evenodd"/>
    <path id="Path_78210" data-name="Path 78210" d="M6,3H16a1,1,0,0,0,0-2H6A3,3,0,0,0,3,4V18a1,1,0,0,0,2,0V4A1,1,0,0,1,6,3Z" fill="#861a37"/>
  </g>
</svg>
