<svg id="document-svgrepo-com_1_" data-name="document-svgrepo-com (1)" xmlns="http://www.w3.org/2000/svg" width="26.863" height="32.534" viewBox="0 0 26.863 32.534">
  <path id="Path_78196" data-name="Path 78196" d="M24.356,32.246H9.006A5.763,5.763,0,0,1,3.25,26.49V5h2.3v.384h18.8a5.763,5.763,0,0,1,5.756,5.756V26.49A5.763,5.763,0,0,1,24.356,32.246ZM5.553,7.686v18.8a3.458,3.458,0,0,0,3.454,3.454h15.35A3.458,3.458,0,0,0,27.81,26.49V11.14a3.458,3.458,0,0,0-3.454-3.454Z" transform="translate(-3.25 0.287)" fill="#707070"/>
  <path id="Path_78197" data-name="Path 78197" d="M25.891,8.378V9.529h1.151V8.378Zm-3.5-5.639L22.224,1.6ZM5.813,5.106,5.65,3.967h0Zm.233,4.423H25.891v-2.3H6.045Zm21-1.151v-2.6h-2.3v2.6ZM22.224,1.6,5.65,3.967l.326,2.279L22.55,3.878ZM5.65,3.967a2.8,2.8,0,0,0-2.4,2.767h2.3a.493.493,0,0,1,.423-.488ZM27.043,5.778A4.221,4.221,0,0,0,22.224,1.6l.326,2.279a1.919,1.919,0,0,1,2.19,1.9Zm-21,1.449a.493.493,0,0,1-.493-.493H3.25a2.8,2.8,0,0,0,2.8,2.8Z" transform="translate(-3.25 -1.556)" fill="#707070"/>
  <path id="Path_78198" data-name="Path 78198" d="M20.681,13.553H8.4a1.151,1.151,0,1,1,0-2.3h12.28a1.151,1.151,0,1,1,0,2.3Z" transform="translate(-1.11 3.631)" fill="#707070" opacity="0.5"/>
  <path id="Path_78199" data-name="Path 78199" d="M16.844,17.053H8.4a1.151,1.151,0,1,1,0-2.3h8.443a1.151,1.151,0,1,1,0,2.3Z" transform="translate(-1.11 5.504)" fill="#707070" opacity="0.5"/>
</svg>
