<svg xmlns="http://www.w3.org/2000/svg" width="34.325" height="42.25" viewBox="0 0 34.325 42.25">
  <g id="document-1-svgrepo-com_1_" data-name="document-1-svgrepo-com (1)" transform="translate(-4 -2)">
    <path id="Path_78274" data-name="Path 78274" d="M4,4.694V34.728a6.436,6.436,0,0,0,6.436,6.436H31.889a6.436,6.436,0,0,0,6.436-6.436V13.276A6.436,6.436,0,0,0,31.889,6.84H6.145A2.145,2.145,0,0,1,4,4.694Zm6.972,15.017A1.609,1.609,0,0,1,12.581,18.1H29.743a1.609,1.609,0,0,1,0,3.218H12.581A1.609,1.609,0,0,1,10.972,19.711Zm0,7.509a1.609,1.609,0,0,1,1.609-1.609h11.8a1.609,1.609,0,1,1,0,3.218h-11.8A1.609,1.609,0,0,1,10.972,27.22Z" transform="translate(0 3.086)" fill="#9f946d" fill-rule="evenodd"/>
    <path id="Path_78275" data-name="Path 78275" d="M34.034,6.291v4a6.426,6.426,0,0,0-2.145-.366H6.145A2.145,2.145,0,0,1,4,7.78V7.628A2.3,2.3,0,0,1,5.973,5.353L29.137,2.044A4.291,4.291,0,0,1,34.034,6.291Z" transform="translate(0 0)" fill="#9f946d" opacity="0.5"/>
  </g>
</svg>
