<svg xmlns="http://www.w3.org/2000/svg" width="20" height="20.109" viewBox="0 0 20 20.109">
  <g id="Download" transform="translate(0)">
    <path id="Stroke_1" data-name="Stroke 1" d="M.5,12.791a.75.75,0,0,1-.75-.75V0a.75.75,0,1,1,1.5,0V12.041A.75.75,0,0,1,.5,12.791Z" transform="translate(9.379 0.75)" fill="#fff"/>
    <path id="Stroke_3" data-name="Stroke 3" d="M2.916,3.678a.75.75,0,0,1-.531-.221L-.531.529a.75.75,0,0,1,0-1.061.75.75,0,0,1,1.061,0L2.916,1.865,5.3-.529a.75.75,0,0,1,1.061,0,.75.75,0,0,1,0,1.061L3.447,3.457A.75.75,0,0,1,2.916,3.678Z" transform="translate(6.963 9.864)" fill="#fff"/>
    <path id="Stroke_4" data-name="Stroke 4" d="M9.25,14.85c-3.61,0-5.995,0-7.62-1C-.061,12.813-.75,10.828-.75,7c0-2.9.372-4.644,1.245-5.822A5.657,5.657,0,0,1,4.811-.747a.75.75,0,0,1,.816.678.75.75,0,0,1-.678.816C3.22.906,2.279,1.29,1.7,2.072,1.043,2.958.75,4.478.75,7c0,3.232.482,4.847,1.665,5.573,1.264.777,3.481.777,6.835.777s5.57,0,6.835-.777C17.268,11.847,17.75,10.232,17.75,7c0-2.522-.293-4.042-.95-4.928C16.22,1.29,15.279.906,13.551.747a.75.75,0,0,1-.678-.816.75.75,0,0,1,.816-.678A5.657,5.657,0,0,1,18,1.178C18.878,2.356,19.25,4.1,19.25,7c0,3.828-.69,5.813-2.38,6.852C15.244,14.85,12.859,14.85,9.25,14.85Z" transform="translate(0.75 5.259)" fill="#fff"/>
  </g>
</svg>
