<svg xmlns="http://www.w3.org/2000/svg" width="22.251" height="22.251" viewBox="0 0 22.251 22.251">
  <g id="edit-svgrepo-com" transform="translate(-1 -0.749)">
    <path id="Path_78211" data-name="Path 78211" d="M15,23H9c-2.841,0-4.774-.609-6.082-1.918S1,17.841,1,15V9c0-2.841.609-4.774,1.918-6.082S6.159,1,9,1h2a1,1,0,0,1,0,2H9c-2.276,0-3.759.423-4.668,1.332S3,6.724,3,9v6c0,2.276.423,3.759,1.332,4.668S6.724,21,9,21h6c2.276,0,3.759-.423,4.668-1.332S21,17.276,21,15V13a1,1,0,0,1,2,0v2c0,2.841-.609,4.774-1.918,6.082S17.841,23,15,23Z" fill="#861a37"/>
    <path id="Path_78212" data-name="Path 78212" d="M18.5.749a4.581,4.581,0,0,1,3.188,1.564,4.385,4.385,0,0,1,1.548,3.515,4.715,4.715,0,0,1-1.548,2.839l-7.88,7.88-.012.011a3.787,3.787,0,0,1-1.874.931l-3.01.43H8.906a2.988,2.988,0,0,1-.406.028,2.424,2.424,0,0,1-1.872-.821,2.511,2.511,0,0,1-.548-2.043l.429-3.006a3.7,3.7,0,0,1,.943-1.886l7.88-7.88A4.5,4.5,0,0,1,18.5.749ZM12.4,15.126l7.873-7.873c1.117-1.117,1.474-2.051,0-3.526A2.719,2.719,0,0,0,18.5,2.749h0a2.672,2.672,0,0,0-1.752.978l-7.88,7.88a1.779,1.779,0,0,0-.377.751l-.43,3.013a.562.562,0,0,0,.082.449.471.471,0,0,0,.358.129.982.982,0,0,0,.131-.009l3.008-.43A1.888,1.888,0,0,0,12.4,15.126Z" fill="#861a37"/>
    <path id="Path_78213" data-name="Path 78213" d="M19.851,10.09a1,1,0,0,1-.273-.038,8.2,8.2,0,0,1-3.553-2.084A8.135,8.135,0,0,1,13.947,4.42a1,1,0,0,1,1.926-.54,6.13,6.13,0,0,0,1.565,2.674,6.19,6.19,0,0,0,2.684,1.574,1,1,0,0,1-.272,1.962Z" fill="#861a37"/>
  </g>
</svg>
