<svg xmlns="http://www.w3.org/2000/svg" xmlns:xlink="http://www.w3.org/1999/xlink" width="58.242" height="55.921" viewBox="0 0 58.242 55.921">
  <defs>
    <clipPath id="clip-path">
      <rect id="Icon-239_Frame_Clip_Content_Mask_" data-name="Icon-239 [Frame Clip Content Mask]" width="58.242" height="55.921" fill="none"/>
    </clipPath>
  </defs>
  <g id="I-238" transform="translate(0 0)">
    <g id="Icon-239_Clip_Content_" data-name="Icon-239 (Clip Content)" transform="translate(0 0)" clip-path="url(#clip-path)">
      <g id="Group" transform="translate(5.824 4.66)">
        <path id="Vector" d="M14.211-24.849a23.3,23.3,0,0,0-7.385,5.01,23.3,23.3,0,0,0-5.009,7.386A23.267,23.267,0,0,0,0-3.366,23.267,23.267,0,0,0,1.817,5.721a23.3,23.3,0,0,0,5.009,7.386,23.3,23.3,0,0,0,7.385,5.01A23.258,23.258,0,0,0,23.3,19.934a23.258,23.258,0,0,0,9.086-1.817,23.3,23.3,0,0,0,7.385-5.01,23.3,23.3,0,0,0,5.009-7.386,23.267,23.267,0,0,0,1.817-9.087,23.267,23.267,0,0,0-1.817-9.087,23.3,23.3,0,0,0-5.009-7.386,23.3,23.3,0,0,0-7.385-5.01A23.258,23.258,0,0,0,23.3-26.667a23.258,23.258,0,0,0-9.086,1.817Zm18.5,5.406a18.515,18.515,0,0,1,6.663,6.664,18.167,18.167,0,0,1,2.563,9.413,18.167,18.167,0,0,1-2.563,9.413,18.515,18.515,0,0,1-6.663,6.664A18.16,18.16,0,0,1,23.3,15.274a18.16,18.16,0,0,1-9.412-2.563A18.515,18.515,0,0,1,7.222,6.047,18.167,18.167,0,0,1,4.659-3.366,18.167,18.167,0,0,1,7.222-12.78a18.515,18.515,0,0,1,6.663-6.664A18.16,18.16,0,0,1,23.3-22.007a18.16,18.16,0,0,1,9.412,2.563ZM11.648-3.366a11.414,11.414,0,0,0,1.561,5.848,11.567,11.567,0,0,0,4.24,4.241A11.409,11.409,0,0,0,23.3,8.284a11.409,11.409,0,0,0,5.847-1.561,11.566,11.566,0,0,0,4.24-4.241,11.414,11.414,0,0,0,1.561-5.848A25.929,25.929,0,0,0,23.3-5.7a25.929,25.929,0,0,0-11.648,2.33Zm-.21-10.322a5.737,5.737,0,0,0-2.027,3.332H20.874a5.737,5.737,0,0,0-2.027-3.332,5.647,5.647,0,0,0-3.7-1.328A5.647,5.647,0,0,0,11.439-13.688Zm16.308,0a5.737,5.737,0,0,0-2.027,3.332H37.181a5.737,5.737,0,0,0-2.027-3.332,5.647,5.647,0,0,0-3.7-1.328,5.647,5.647,0,0,0-3.7,1.328Z" transform="translate(0 26.667)" fill="#707070"/>
      </g>
    </g>
  </g>
</svg>
