<svg id="file-text-svgrepo-com_3_" data-name="file-text-svgrepo-com (3)" xmlns="http://www.w3.org/2000/svg" width="30.159" height="30.159" viewBox="0 0 30.159 30.159">
  <path id="Path_78315" data-name="Path 78315" d="M21.089,5.183l-.7.782Zm5.553,5-.7.782Zm3.229,3.559-.961.428h0ZM3.945,28.713l.744-.744h0Zm24.768,0-.744-.744h0Zm-9.578.591H13.524v2.1h5.611ZM3.354,19.135V13.524H1.25v5.611Zm25.95-.613v.613h2.1v-.613ZM20.385,5.965l5.553,5L27.345,9.4l-5.553-5ZM31.409,18.522c0-2.368.021-3.868-.576-5.21l-1.922.856c.373.838.394,1.8.394,4.354Zm-5.471-7.559c1.9,1.709,2.6,2.368,2.972,3.205l1.922-.856c-.6-1.342-1.726-2.329-3.487-3.913ZM13.566,3.354c2.219,0,3.056.016,3.8.3l.754-1.964a12.81,12.81,0,0,0-4.556-.442ZM21.792,4.4a12.742,12.742,0,0,0-3.671-2.708l-.754,1.964c.747.286,1.376.831,3.017,2.308ZM13.524,29.3a50.476,50.476,0,0,1-6.016-.2,4.554,4.554,0,0,1-2.818-1.139L3.2,29.457a6.609,6.609,0,0,0,4.025,1.737,52.031,52.031,0,0,0,6.3.215ZM1.25,19.135a52.023,52.023,0,0,0,.215,6.3A6.608,6.608,0,0,0,3.2,29.457l1.488-1.488A4.555,4.555,0,0,1,3.55,25.151a50.489,50.489,0,0,1-.2-6.017ZM19.135,31.409a52.03,52.03,0,0,0,6.3-.215,6.609,6.609,0,0,0,4.026-1.737l-1.488-1.488a4.555,4.555,0,0,1-2.818,1.139,50.478,50.478,0,0,1-6.017.2ZM29.3,19.135a50.478,50.478,0,0,1-.2,6.017,4.555,4.555,0,0,1-1.139,2.818l1.488,1.488a6.609,6.609,0,0,0,1.737-4.026,52.03,52.03,0,0,0,.215-6.3ZM3.354,13.524a50.487,50.487,0,0,1,.2-6.016A4.555,4.555,0,0,1,4.689,4.689L3.2,3.2A6.608,6.608,0,0,0,1.465,7.227a52.024,52.024,0,0,0-.215,6.3ZM13.566,1.25a52.533,52.533,0,0,0-6.328.215A6.62,6.62,0,0,0,3.2,3.2L4.689,4.689A4.569,4.569,0,0,1,7.517,3.55a51,51,0,0,1,6.048-.2Z" transform="translate(-1.25 -1.25)" fill="#9f946d"/>
  <path id="Path_78316" data-name="Path 78316" d="M6,14.5H17.222" transform="translate(0.663 4.086)" fill="none" stroke="rgba(159,149,108,0.47)" stroke-linecap="round" stroke-width="1.5"/>
  <path id="Path_78317" data-name="Path 78317" d="M6,18h7.715" transform="translate(0.663 5.496)" fill="none" stroke="rgba(159,149,108,0.47)" stroke-linecap="round" stroke-width="1.5"/>
  <path id="Path_78318" data-name="Path 78318" d="M13,2.5V6.007c0,3.306,0,4.959,1.027,5.987s2.68,1.027,5.987,1.027h5.611" transform="translate(3.482 -0.747)" fill="none" stroke="#9f946d" stroke-width="1.5"/>
</svg>
