<svg xmlns="http://www.w3.org/2000/svg" width="19.92" height="19.92" viewBox="0 0 19.92 19.92">
  <g id="Group_56416" data-name="Group 56416" transform="translate(-1254 -727.08)">
    <g id="full-screen-one-svgrepo-com" transform="translate(1250 723.08)">
      <path id="Path_78168" data-name="Path 78168" d="M9.976,10.922a.993.993,0,0,1-.7-.288L4.3,5.7A1,1,0,0,1,5.7,4.288l4.98,4.93a1,1,0,0,1-.7,1.7Z" transform="translate(0 0)" fill="#861a37"/>
      <path id="Path_78169" data-name="Path 78169" d="M5,36.922a1,1,0,0,1-.7-1.7l4.98-4.93a1,1,0,1,1,1.4,1.416L5.7,36.634A.993.993,0,0,1,5,36.922Z" transform="translate(0 -13.052)" fill="#861a37"/>
      <path id="Path_78170" data-name="Path 78170" d="M36.027,36.922a.993.993,0,0,1-.7-.292l-4.93-4.93A1,1,0,0,1,31.8,30.292l4.93,4.93a1,1,0,0,1-.7,1.7Z" transform="translate(-13.103 -13.052)" fill="#861a37"/>
      <path id="Path_78171" data-name="Path 78171" d="M31,10.922a1,1,0,0,1-.7-1.7l4.93-4.93A1,1,0,0,1,36.63,5.7L31.7,10.63A.993.993,0,0,1,31,10.922Z" transform="translate(-13.052 0)" fill="#861a37"/>
      <path id="Path_78172" data-name="Path 78172" d="M36.478,10.474a1,1,0,0,1-1-1V5.992H32A1,1,0,1,1,32,4h4.482a1,1,0,0,1,1,1V9.478A1,1,0,0,1,36.478,10.474Z" transform="translate(-13.554 0)" fill="#861a37"/>
      <path id="Path_78173" data-name="Path 78173" d="M36.478,37.474H32a1,1,0,1,1,0-1.992h3.486V32a1,1,0,1,1,1.992,0v4.482A1,1,0,0,1,36.478,37.474Z" transform="translate(-13.554 -13.554)" fill="#861a37"/>
      <path id="Path_78174" data-name="Path 78174" d="M9.478,37.474H5a1,1,0,0,1-1-1V32a1,1,0,1,1,1.992,0v3.486H9.478a1,1,0,1,1,0,1.992Z" transform="translate(0 -13.554)" fill="#861a37"/>
      <path id="Path_78175" data-name="Path 78175" d="M5,10.474a1,1,0,0,1-1-1V5A1,1,0,0,1,5,4H9.478a1,1,0,1,1,0,1.992H5.992V9.478A1,1,0,0,1,5,10.474Z" transform="translate(0 0)" fill="#861a37"/>
    </g>
  </g>
</svg>
