<svg xmlns="http://www.w3.org/2000/svg" width="13.291" height="12.664" viewBox="0 0 13.291 12.664">
  <path id="garage-svgrepo-com" d="M8.819,3.543a1.391,1.391,0,0,0-1.848,0l-3.709,3.3A1.391,1.391,0,0,0,2.8,7.879V14h.927V10.723a11.326,11.326,0,0,1,.049-1.386,1.684,1.684,0,0,1,.449-1.02,1.684,1.684,0,0,1,1.02-.448,11.325,11.325,0,0,1,1.386-.049H9.164a11.325,11.325,0,0,1,1.386.049,1.536,1.536,0,0,1,1.469,1.469,11.327,11.327,0,0,1,.049,1.386V14H13V7.879a1.391,1.391,0,0,0-.467-1.04ZM13.923,14V7.879a2.318,2.318,0,0,0-.778-1.733l-3.709-3.3a2.318,2.318,0,0,0-3.08,0l-3.709,3.3a2.318,2.318,0,0,0-.778,1.733V14H1.714a.464.464,0,1,0,0,.927H14.077a.464.464,0,0,0,0-.927Zm-2.782,0V10.755A10.973,10.973,0,0,0,11.1,9.46a.636.636,0,0,0-.673-.673,10.958,10.958,0,0,0-1.295-.041H6.659a10.959,10.959,0,0,0-1.295.041.782.782,0,0,0-.488.185.782.782,0,0,0-.185.488,10.965,10.965,0,0,0-.041,1.295V14ZM6.2,6.428a.464.464,0,0,1,.464-.464H9.132a.464.464,0,0,1,0,.927H6.659A.464.464,0,0,1,6.2,6.428Zm-.618,4.018a.464.464,0,0,1,.464-.464H9.75a.464.464,0,0,1,0,.927H6.041A.464.464,0,0,1,5.577,10.446Zm0,1.855a.464.464,0,0,1,.464-.464H9.75a.464.464,0,1,1,0,.927H6.041A.464.464,0,0,1,5.577,12.3Z" transform="translate(-1.25 -2.264)" fill="#707070" fill-rule="evenodd"/>
</svg>
