<svg xmlns="http://www.w3.org/2000/svg" width="28" height="28" viewBox="0 0 28 28">
  <g id="Group_56437" data-name="Group 56437" transform="translate(-1793 -466)">
    <path id="Ellipse_28" data-name="Ellipse 28" d="M14,1A13,13,0,0,0,4.808,23.192,13,13,0,0,0,23.192,4.808,12.915,12.915,0,0,0,14,1m0-1A14,14,0,1,1,0,14,14,14,0,0,1,14,0Z" transform="translate(1793 466)" fill="#707070"/>
    <path id="document-add-svgrepo-com_1_" data-name="document-add-svgrepo-com (1)" d="M8.711,1.25h1.57a27.146,27.146,0,0,1,3.294.114,3.5,3.5,0,0,1,2.133.92.557.557,0,0,1-.788.788,2.413,2.413,0,0,0-1.493-.6,26.75,26.75,0,0,0-3.188-.1H8.753a26.749,26.749,0,0,0-3.188.1,2.413,2.413,0,0,0-1.493.6,2.413,2.413,0,0,0-.6,1.493,26.749,26.749,0,0,0-.1,3.188v2.973a26.75,26.75,0,0,0,.1,3.188,2.413,2.413,0,0,0,.6,1.493,2.413,2.413,0,0,0,1.493.6,26.743,26.743,0,0,0,3.188.1h1.486a26.744,26.744,0,0,0,3.188-.1,2.413,2.413,0,0,0,1.493-.6c.517-.517.674-1.321.7-3.2a.557.557,0,1,1,1.115.016c-.026,1.8-.143,3.09-1.027,3.975a3.5,3.5,0,0,1-2.133.92,27.161,27.161,0,0,1-3.294.114H8.711a27.161,27.161,0,0,1-3.294-.114,3.5,3.5,0,0,1-2.133-.92,3.5,3.5,0,0,1-.92-2.133,27.146,27.146,0,0,1-.114-3.294V7.711a27.146,27.146,0,0,1,.114-3.294,3.5,3.5,0,0,1,.92-2.133,3.5,3.5,0,0,1,2.133-.92A27.146,27.146,0,0,1,8.711,1.25Zm5.328,4.307a2.019,2.019,0,0,1,2.855,2.855L13.36,11.946a5.221,5.221,0,0,1-.468.436,3,3,0,0,1-.553.342,5.235,5.235,0,0,1-.6.224l-1.549.516a.951.951,0,0,1-1.2-1.2l.506-1.517.01-.031a5.253,5.253,0,0,1,.224-.6,3,3,0,0,1,.342-.553,5.221,5.221,0,0,1,.436-.468l.023-.023Zm2.067.788a.9.9,0,0,0-1.278,0l-.135.135c.007.025.016.051.025.079a1.928,1.928,0,0,0,1.174,1.174l.079.025.135-.135A.9.9,0,0,0,16.106,6.345ZM15.119,8.61a3.062,3.062,0,0,1-1.278-1.278L11.317,9.856a4.671,4.671,0,0,0-.369.389,1.882,1.882,0,0,0-.214.347,4.65,4.65,0,0,0-.183.5l-.3.892.21.21.892-.3a4.65,4.65,0,0,0,.5-.183,1.882,1.882,0,0,0,.347-.214,4.671,4.671,0,0,0,.389-.369ZM5.966,7.01a.557.557,0,0,1,.557-.557h4.831a.557.557,0,1,1,0,1.115H6.523A.557.557,0,0,1,5.966,7.01Zm0,2.973a.557.557,0,0,1,.557-.557H8.381a.557.557,0,1,1,0,1.115H6.523A.557.557,0,0,1,5.966,9.982Zm0,2.973a.557.557,0,0,1,.557-.557H7.638a.557.557,0,0,1,0,1.115H6.523A.557.557,0,0,1,5.966,12.955Z" transform="translate(1797.132 470.761)" fill="#707070" fill-rule="evenodd"/>
  </g>
</svg>
