<svg xmlns="http://www.w3.org/2000/svg" width="42" height="41" viewBox="0 0 42 41">
  <g id="Group_56369" data-name="Group 56369" transform="translate(-1431 -131)">
    <path id="Subtraction_5" data-name="Subtraction 5" d="M4049,17360h-32a5.007,5.007,0,0,1-5-5v-31a5.007,5.007,0,0,1,5-5h32a5.005,5.005,0,0,1,5,5v31A5.005,5.005,0,0,1,4049,17360Zm-28-13.941h0v2.371h13.022v-2.371Zm0-8.029h0v2.371h19.706l-2.575,2.574,1.673,1.678,5.437-5.437-1.677-1.678-3.76-3.76-1.673,1.674,2.575,2.578Zm0-8.029h0v2.371h13.022V17330Z" transform="translate(-2581 -17188)" fill="#fff"/>
  </g>
</svg>
