<svg id="Group_56416" data-name="Group 56416" xmlns="http://www.w3.org/2000/svg" width="28.486" height="28.414" viewBox="0 0 28.486 28.414">
  <g id="full-screen-one-svgrepo-com" transform="translate(0 0)">
    <path id="Path_78168" data-name="Path 78168" d="M12.546,13.9a1.42,1.42,0,0,1-1-.412L4.422,6.436a1.424,1.424,0,0,1,2-2.024l7.121,7.05a1.424,1.424,0,0,1-1,2.436Z" transform="translate(-4 -4)" fill="#861a37"/>
    <path id="Path_78169" data-name="Path 78169" d="M5.424,39.9a1.424,1.424,0,0,1-1-2.436l7.121-7.05a1.424,1.424,0,1,1,2,2.024l-7.121,7.05A1.42,1.42,0,0,1,5.424,39.9Z" transform="translate(-4 -11.484)" fill="#861a37"/>
    <path id="Path_78170" data-name="Path 78170" d="M38.575,39.9a1.42,1.42,0,0,1-1.007-.417l-7.05-7.05a1.424,1.424,0,0,1,2.014-2.014l7.05,7.05A1.424,1.424,0,0,1,38.575,39.9Z" transform="translate(58.586 58.414) rotate(180)" fill="#861a37"/>
    <path id="Path_78171" data-name="Path 78171" d="M31.424,13.9a1.424,1.424,0,0,1-1.007-2.431l7.05-7.05a1.424,1.424,0,0,1,2.014,2.014l-7.05,7.05A1.42,1.42,0,0,1,31.424,13.9Z" transform="translate(-11.484 -4)" fill="#861a37"/>
    <path id="Path_78172" data-name="Path 78172" d="M38.834,13.258a1.424,1.424,0,0,1-1.424-1.424V6.849H32.424a1.424,1.424,0,1,1,0-2.849h6.409a1.424,1.424,0,0,1,1.424,1.424v6.409A1.424,1.424,0,0,1,38.834,13.258Z" transform="translate(56.486 16.258) rotate(180)" fill="#861a37"/>
    <path id="Path_78173" data-name="Path 78173" d="M32.424,31h6.409a1.424,1.424,0,0,1,0,2.849H33.849v4.985a1.424,1.424,0,1,1-2.849,0V32.424A1.424,1.424,0,0,1,32.424,31Z" transform="translate(-13.772 -13.772)" fill="#861a37"/>
    <path id="Path_78173-2" data-name="Path 78173" d="M32.424,31h6.409a1.424,1.424,0,0,1,0,2.849H33.849v4.985a1.424,1.424,0,1,1-2.849,0V32.424A1.424,1.424,0,0,1,32.424,31Z" transform="translate(42.599 42.527) rotate(180)" fill="#861a37"/>
    <path id="Path_78174" data-name="Path 78174" d="M11.834,40.258H5.424A1.424,1.424,0,0,1,4,38.834V32.424a1.424,1.424,0,1,1,2.849,0v4.985h4.985a1.424,1.424,0,1,1,0,2.849Z" transform="translate(15.258 57.486) rotate(180)" fill="#861a37"/>
  </g>
</svg>
