<svg id="passport-svgrepo-com" xmlns="http://www.w3.org/2000/svg" width="26.863" height="32.534" viewBox="0 0 26.863 32.534">
  <path id="Path_78200" data-name="Path 78200" d="M24.356,32.246H9.006A5.763,5.763,0,0,1,3.25,26.49V5h2.3v.384h18.8a5.763,5.763,0,0,1,5.756,5.756V26.49A5.763,5.763,0,0,1,24.356,32.246ZM5.553,7.686v18.8a3.458,3.458,0,0,0,3.454,3.454h15.35A3.458,3.458,0,0,0,27.81,26.49V11.14a3.458,3.458,0,0,0-3.454-3.454Z" transform="translate(-3.25 0.287)" fill="#707070"/>
  <path id="Ellipse_30" data-name="Ellipse 30" d="M5.006-.75A5.756,5.756,0,1,1-.75,5.006,5.763,5.763,0,0,1,5.006-.75Zm0,9.21A3.454,3.454,0,1,0,1.553,5.006,3.458,3.458,0,0,0,5.006,8.46Z" transform="translate(8.425 12.561)" fill="#707070" opacity="0.5"/>
  <path id="Path_78201" data-name="Path 78201" d="M25.891,8.378V9.529h1.151V8.378Zm-3.5-5.639L22.224,1.6ZM5.813,5.106,5.65,3.967h0Zm.233,4.423H25.891v-2.3H6.045Zm21-1.151v-2.6h-2.3v2.6ZM22.224,1.6,5.65,3.967l.326,2.279L22.55,3.878ZM5.65,3.967a2.8,2.8,0,0,0-2.4,2.767h2.3a.493.493,0,0,1,.423-.488ZM27.043,5.778A4.221,4.221,0,0,0,22.224,1.6l.326,2.279a1.919,1.919,0,0,1,2.19,1.9Zm-21,1.449a.493.493,0,0,1-.493-.493H3.25a2.8,2.8,0,0,0,2.8,2.8Z" transform="translate(-3.25 -1.556)" fill="#707070"/>
  <path id="Path_78202" data-name="Path 78202" d="M16.541,20.553H10.4a1.151,1.151,0,1,1,0-2.3h6.14a1.151,1.151,0,0,1,0,2.3Z" transform="translate(-0.04 7.376)" fill="#707070" opacity="0.5"/>
</svg>
