<svg xmlns="http://www.w3.org/2000/svg" width="16.874" height="17.773" viewBox="0 0 16.874 17.773">
  <path id="Vector" d="M.622-15.747a.864.864,0,0,0-.453.32A.88.88,0,0,0,0-14.894V-7.66A5.238,5.238,0,0,0,.622-5.172a5.323,5.323,0,0,0,1.705,1.92L7.105,0l4.778-3.253a5.645,5.645,0,0,0,1.243-1.191h2.86a.857.857,0,0,0,.631-.258.858.858,0,0,0,.258-.631V-8.887H5.329v3.555a.858.858,0,0,0,.258.631.857.857,0,0,0,.631.258h4.245L7.105-2.151,3.322-4.728l-.16-.124A3.418,3.418,0,0,1,2.14-6.1,3.524,3.524,0,0,1,1.776-7.66v-6.594l5.329-1.653,5.329,1.653v.924H6.217a.857.857,0,0,0-.631.258.858.858,0,0,0-.258.631v1.777H16.874v-1.777a.858.858,0,0,0-.258-.631.857.857,0,0,0-.631-.258H14.21v-1.564a.88.88,0,0,0-.169-.533.864.864,0,0,0-.453-.32L7.105-17.773Z" transform="translate(0 17.773)"/>
</svg>
