<svg xmlns="http://www.w3.org/2000/svg" width="15.986" height="17.773" viewBox="0 0 15.986 17.773">
  <path id="Vector" d="M14.21-11.553a6.124,6.124,0,0,0-.853-3.146,6.052,6.052,0,0,0-2.22-2.222,6.114,6.114,0,0,0-3.144-.853,6.114,6.114,0,0,0-3.144.853A6.052,6.052,0,0,0,2.629-14.7a6.124,6.124,0,0,0-.853,3.146v.889H.888a.857.857,0,0,0-.631.258A.858.858,0,0,0,0-9.775V-.889a.858.858,0,0,0,.258.631A.857.857,0,0,0,.888,0H15.1a.857.857,0,0,0,.631-.258.858.858,0,0,0,.258-.631V-9.775a.858.858,0,0,0-.258-.631.857.857,0,0,0-.631-.258H14.21Zm-10.658.889v-.889a4.355,4.355,0,0,1,.6-2.231A4.41,4.41,0,0,1,5.764-15.4,4.348,4.348,0,0,1,7.993-16a4.348,4.348,0,0,1,2.229.6,4.41,4.41,0,0,1,1.616,1.617,4.355,4.355,0,0,1,.6,2.231v.889ZM8.881-7.109v3.555H7.105V-7.109Z" transform="translate(0 17.773)"/>
</svg>
