<svg xmlns="http://www.w3.org/2000/svg" width="17.763" height="17.773" viewBox="0 0 17.763 17.773">
  <path id="Vector" d="M0,0H17.763V-1.777H0ZM1.776-2.666H3.553V-8.887H1.776Zm4.441,0H7.993V-8.887H6.217Zm3.552,0h1.776V-8.887H9.769Zm4.441,0h1.776V-8.887H14.21ZM0-9.775H17.763V-13.33L8.881-17.773,0-13.33ZM8.251-12.7a.858.858,0,0,1-.258-.631.858.858,0,0,1,.258-.631.857.857,0,0,1,.631-.258.857.857,0,0,1,.631.258.858.858,0,0,1,.258.631.858.858,0,0,1-.258.631.857.857,0,0,1-.631.258A.857.857,0,0,1,8.251-12.7Z" transform="translate(0 17.773)"/>
</svg>
