<svg xmlns="http://www.w3.org/2000/svg" width="19.539" height="20.377" viewBox="0 0 19.539 20.377">
  <g id="Group_57135" data-name="Group 57135" transform="translate(-1417.228 -1595.604)">
    <path id="Path_78211" data-name="Path 78211" d="M17.689,18.144H15.441a.723.723,0,1,1,0-1.445h2.248a1.009,1.009,0,0,0,1-1.01V8.464a1.008,1.008,0,0,0-1.007-1.007H3.05A1.008,1.008,0,0,0,2.045,8.464V15.69A1.009,1.009,0,0,0,3.05,16.7H5.162a.723.723,0,0,1,0,1.445H3.05A2.456,2.456,0,0,1,.6,15.689V8.464A2.455,2.455,0,0,1,3.05,6.012H17.689a2.455,2.455,0,0,1,2.45,2.452V15.69A2.456,2.456,0,0,1,17.689,18.144Z" transform="translate(1416.628 1593.068)" fill="#861a37"/>
    <path id="Path_78212" data-name="Path 78212" d="M17.9,1.445h-6.86a.723.723,0,0,1,0-1.445H17.9a.723.723,0,1,1,0,1.445Z" transform="translate(1412.529 1595.604)" fill="#861a37"/>
    <path id="Path_78213" data-name="Path 78213" d="M18.209,28.1H9.04a.722.722,0,0,1-.723-.723V19.03a.723.723,0,0,1,1.445,0v7.626h7.725V19.03a.723.723,0,0,1,1.445,0v8.349a.722.722,0,0,1-.723.723Z" transform="translate(1413.372 1587.88)" fill="#861a37"/>
    <path id="Path_78214" data-name="Path 78214" d="M18.659,19.752H6.162a.723.723,0,1,1,0-1.445h12.5a.723.723,0,1,1,0,1.445Z" transform="translate(1414.586 1587.88)" fill="#861a37"/>
  </g>
</svg>
