<svg xmlns="http://www.w3.org/2000/svg" width="19.5" height="21.498" viewBox="0 0 19.5 21.498">
  <g id="Group_57187" data-name="Group 57187" transform="translate(-1608.319 -856)">
    <path id="clipboard-remove-svgrepo-com" d="M7.263,3.259A2.25,2.25,0,0,1,9.5,1.25h5a2.25,2.25,0,0,1,2.237,2.009,12.734,12.734,0,0,1,1.986.159,3.487,3.487,0,0,1,1.928.929,3.717,3.717,0,0,1,.982,2.26,27.434,27.434,0,0,1,.117,3.337v6.11a27.435,27.435,0,0,1-.117,3.337,3.717,3.717,0,0,1-.982,2.26,3.718,3.718,0,0,1-2.26.982,27.412,27.412,0,0,1-3.337.117H8.945a27.411,27.411,0,0,1-3.337-.117,3.717,3.717,0,0,1-2.26-.982,3.717,3.717,0,0,1-.982-2.26,27.418,27.418,0,0,1-.117-3.337V9.943a27.418,27.418,0,0,1,.117-3.337,3.717,3.717,0,0,1,.982-2.26,3.487,3.487,0,0,1,1.928-.929A12.735,12.735,0,0,1,7.263,3.259Zm0,1.5a11.175,11.175,0,0,0-1.717.133,2.01,2.01,0,0,0-1.138.515,2.255,2.255,0,0,0-.556,1.4A26.863,26.863,0,0,0,3.75,10v6a26.861,26.861,0,0,0,.1,3.192,2.255,2.255,0,0,0,.556,1.4,2.255,2.255,0,0,0,1.4.556,26.851,26.851,0,0,0,3.192.1h6a26.852,26.852,0,0,0,3.192-.1,2.255,2.255,0,0,0,1.4-.556,2.255,2.255,0,0,0,.556-1.4A26.876,26.876,0,0,0,20.25,16V10a26.878,26.878,0,0,0-.1-3.192,2.255,2.255,0,0,0-.556-1.4,2.01,2.01,0,0,0-1.138-.515,11.176,11.176,0,0,0-1.717-.133A2.25,2.25,0,0,1,14.5,6.75h-5A2.25,2.25,0,0,1,7.265,4.759ZM9.5,2.75a.75.75,0,0,0-.75.75v1a.75.75,0,0,0,.75.75h5a.75.75,0,0,0,.75-.75v-1a.75.75,0,0,0-.75-.75Z" transform="translate(1606.069 854.75)" fill="#861a37" fill-rule="evenodd"/>
    <path id="Path_82775" data-name="Path 82775" d="M9.259,7.974a.75.75,0,0,0-1.017-1.1L5.991,8.949a.75.75,0,0,0,0,1.1l2.25,2.077a.75.75,0,0,0,1.017-1.1l-.84-.776h5.62c.7,0,1.168,0,1.527.036a1.333,1.333,0,0,1,.613.164,1.25,1.25,0,0,1,.371.371,1.334,1.334,0,0,1,.164.613c.035.358.036.828.036,1.527s0,1.168-.036,1.527a1.333,1.333,0,0,1-.164.613,1.25,1.25,0,0,1-.371.371,1.336,1.336,0,0,1-.613.164c-.358.035-.828.036-1.527.036H9.5a.75.75,0,1,0,0,1.5h4.576c.652,0,1.2,0,1.637-.044a2.784,2.784,0,0,0,1.28-.4,2.751,2.751,0,0,0,.816-.816,2.786,2.786,0,0,0,.4-1.28c.044-.441.044-.985.044-1.637v-.075c0-.652,0-1.2-.044-1.637a2.784,2.784,0,0,0-.4-1.28,2.748,2.748,0,0,0-.816-.816,2.785,2.785,0,0,0-1.28-.4c-.441-.044-.985-.044-1.637-.044H8.418Z" transform="translate(1605.75 856.297)" fill="#861a37"/>
  </g>
</svg>
