<svg xmlns="http://www.w3.org/2000/svg" width="20.068" height="20.068" viewBox="0 0 20.068 20.068">
  <path id="send-svgrepo-com" d="M22.662,6.364a20.2,20.2,0,0,0-2.374.709L11.614,9.964c-1.106.369-1.886.629-2.447.848a6.081,6.081,0,0,0-.605.266,1.1,1.1,0,0,0-.157.095,1.336,1.336,0,0,0,0,1.92,1.1,1.1,0,0,0,.157.095,6.091,6.091,0,0,0,.605.266c.561.219,1.341.479,2.447.848l.076.025a6.412,6.412,0,0,1,.981.384,4.008,4.008,0,0,1,1.67,1.67,6.412,6.412,0,0,1,.384.981l.025.076c.369,1.106.629,1.886.848,2.447a6.094,6.094,0,0,0,.266.605,1.09,1.09,0,0,0,.095.157,1.336,1.336,0,0,0,1.92,0,1.09,1.09,0,0,0,.095-.157,6.094,6.094,0,0,0,.266-.605c.219-.561.479-1.341.848-2.447l2.892-8.674a20.2,20.2,0,0,0,.709-2.374l.005-.031Zm.346-.031-.012,0Zm-.288-.277a.043.043,0,0,1,0-.012A.05.05,0,0,1,22.72,6.056Zm-.526-2.323a2.719,2.719,0,0,1,2.52.605,2.719,2.719,0,0,1,.605,2.52,21.022,21.022,0,0,1-.773,2.655l-.032.1-2.892,8.674-.013.038c-.353,1.06-.635,1.9-.881,2.536a4.977,4.977,0,0,1-.92,1.639,4.009,4.009,0,0,1-5.781,0,4.977,4.977,0,0,1-.92-1.639c-.246-.631-.528-1.476-.881-2.535l-.013-.038a5.1,5.1,0,0,0-.237-.653,1.337,1.337,0,0,0-.557-.557,5.1,5.1,0,0,0-.653-.237l-.038-.013c-1.059-.353-1.9-.635-2.535-.881a4.979,4.979,0,0,1-1.639-.92,4.009,4.009,0,0,1,0-5.782A4.979,4.979,0,0,1,8.2,8.323c.632-.246,1.476-.528,2.536-.881l.038-.013,8.674-2.891.1-.032A21.028,21.028,0,0,1,22.194,3.733Z" transform="translate(-5.325 -3.659)" fill="#861a37" fill-rule="evenodd"/>
</svg>
