<svg id="Star" xmlns="http://www.w3.org/2000/svg" width="19.504" height="19.5" viewBox="0 0 19.504 19.5">
  <path id="Stroke_1" data-name="Stroke 1" d="M9-.75c1.788,0,2.494,1.786,3.061,3.221a6.229,6.229,0,0,0,.92,1.807,3.668,3.668,0,0,0,1.977.4,7.935,7.935,0,0,1,2.106.291,2.282,2.282,0,0,1,1.611,1.7c.4,1.713-.861,2.754-1.877,3.591-.658.543-1.28,1.055-1.407,1.631a5.282,5.282,0,0,0,.274,2.153c.354,1.383.794,3.1-.674,4.211a2.326,2.326,0,0,1-1.425.491A5.093,5.093,0,0,1,10.9,17.624a4.277,4.277,0,0,0-1.9-.9,4.276,4.276,0,0,0-1.9.9A5.093,5.093,0,0,1,4.432,18.75a2.326,2.326,0,0,1-1.424-.491c-1.468-1.107-1.028-2.828-.674-4.21a5.277,5.277,0,0,0,.274-2.154c-.126-.576-.748-1.089-1.407-1.632C.186,9.427-1.078,8.385-.676,6.673A2.283,2.283,0,0,1,.936,4.97a7.935,7.935,0,0,1,2.106-.291,3.671,3.671,0,0,0,1.978-.4,6.226,6.226,0,0,0,.92-1.807C6.507,1.036,7.212-.75,9-.75Zm4.568,18a.837.837,0,0,0,.522-.189c.6-.456.5-1.189.124-2.642a6.258,6.258,0,0,1-.286-2.847,4.78,4.78,0,0,1,1.918-2.467c1.06-.874,1.541-1.364,1.37-2.09-.155-.659-.863-.765-2.331-.838A4.3,4.3,0,0,1,11.9,5.321a7.068,7.068,0,0,1-1.237-2.3C10.124,1.65,9.714.75,9,.75s-1.123.9-1.665,2.272A7.064,7.064,0,0,1,6.1,5.321a4.3,4.3,0,0,1-2.982.857C1.648,6.25.94,6.357.785,7.016c-.17.725.31,1.216,1.37,2.09a4.777,4.777,0,0,1,1.918,2.468,6.253,6.253,0,0,1-.286,2.847c-.371,1.452-.48,2.185.124,2.641a.837.837,0,0,0,.521.189,4.211,4.211,0,0,0,1.838-.877A5.188,5.188,0,0,1,9,15.225a5.188,5.188,0,0,1,2.73,1.148A4.212,4.212,0,0,0,13.568,17.25Z" transform="translate(0.752 0.75)" fill="#861a37"/>
</svg>
