<svg xmlns="http://www.w3.org/2000/svg" width="19.5" height="21.5" viewBox="0 0 19.5 21.5">
  <g id="Group_57144" data-name="Group 57144" transform="translate(0 0)">
    <g id="Group_57142" data-name="Group 57142">
      <path id="document-medicine-svgrepo-com_1_" data-name="document-medicine-svgrepo-com (1)" d="M10.944,1.25h2.113a36.526,36.526,0,0,1,4.433.153,4.711,4.711,0,0,1,2.87,1.238A4.712,4.712,0,0,1,21.6,5.511a36.547,36.547,0,0,1,.153,4.433v4.113a36.546,36.546,0,0,1-.153,4.433,4.712,4.712,0,0,1-1.238,2.87,4.712,4.712,0,0,1-2.87,1.238,36.546,36.546,0,0,1-4.433.153H10.944A36.547,36.547,0,0,1,6.511,22.6a4.712,4.712,0,0,1-2.87-1.238A4.711,4.711,0,0,1,2.4,18.489a36.526,36.526,0,0,1-.153-4.433V9.944A36.527,36.527,0,0,1,2.4,5.511a4.711,4.711,0,0,1,1.238-2.87A4.711,4.711,0,0,1,6.511,1.4,36.527,36.527,0,0,1,10.944,1.25ZM6.711,2.89A3.247,3.247,0,0,0,4.7,3.7,3.247,3.247,0,0,0,3.89,5.711,35.992,35.992,0,0,0,3.75,10v4a35.994,35.994,0,0,0,.14,4.289A3.247,3.247,0,0,0,4.7,20.3a3.247,3.247,0,0,0,2.009.812A35.984,35.984,0,0,0,11,21.25h2a35.986,35.986,0,0,0,4.289-.14A3.247,3.247,0,0,0,19.3,20.3a3.247,3.247,0,0,0,.812-2.009A35.986,35.986,0,0,0,20.25,14V10a35.984,35.984,0,0,0-.14-4.289A3.247,3.247,0,0,0,19.3,3.7a3.247,3.247,0,0,0-2.009-.812A35.994,35.994,0,0,0,13,2.75H11A35.992,35.992,0,0,0,6.711,2.89ZM7.25,14A.75.75,0,0,1,8,13.25h8a.75.75,0,0,1,0,1.5H8A.75.75,0,0,1,7.25,14Zm1,4A.75.75,0,0,1,9,17.25h6a.75.75,0,0,1,0,1.5H9A.75.75,0,0,1,8.25,18Z" transform="translate(-2.25 -1.25)" fill="#861a37" fill-rule="evenodd"/>
    </g>
    <path id="Path_82767" data-name="Path 82767" d="M17.182,1.837a2,2,0,0,1,2.835,2.835L16.634,8.055l-.024.024a5.08,5.08,0,0,1-.455.423,2.945,2.945,0,0,1-.544.336,5.079,5.079,0,0,1-.582.217L15,9.067l-1.462.487A.976.976,0,0,1,12.3,8.319l.487-1.462.011-.032a5.075,5.075,0,0,1,.217-.582,2.946,2.946,0,0,1,.336-.544,5.07,5.07,0,0,1,.423-.455L13.8,5.22Zm1.991.844a.811.811,0,0,0-1.147,0l-.1.1.013.04A1.8,1.8,0,0,0,19.029,3.92l.04.013.1-.1A.811.811,0,0,0,19.173,2.681ZM18.166,4.835a3.013,3.013,0,0,1-1.147-1.147L14.643,6.064a4.457,4.457,0,0,0-.35.369,1.747,1.747,0,0,0-.2.323,4.445,4.445,0,0,0-.173.478l-.179.538.342.342.538-.179a4.449,4.449,0,0,0,.478-.173,1.751,1.751,0,0,0,.323-.2,4.456,4.456,0,0,0,.369-.35Z" transform="translate(-5.992 1.146)" fill="#861a37" fill-rule="evenodd"/>
  </g>
</svg>
