<svg xmlns="http://www.w3.org/2000/svg" width="13.872" height="11.291" viewBox="0 0 13.872 11.291">
  <g id="user-id-svgrepo-com" transform="translate(-1.25 -3.25)">
    <path id="Path_82734" data-name="Path 82734" d="M8.024,6.25A1.774,1.774,0,1,0,9.8,8.024,1.774,1.774,0,0,0,8.024,6.25ZM7.218,8.024a.806.806,0,1,1,.806.806A.806.806,0,0,1,7.218,8.024Z" transform="translate(-1.774 -1.064)" fill="#707070" fill-rule="evenodd"/>
    <path id="Path_82735" data-name="Path 82735" d="M7.315,12.25a4.662,4.662,0,0,0-2.041.429A1.6,1.6,0,0,0,4.25,14.024v.04a1.4,1.4,0,0,0,.523,1.264,2.334,2.334,0,0,0,.964.361,9.15,9.15,0,0,0,1.578.109,9.15,9.15,0,0,0,1.578-.109,2.334,2.334,0,0,0,.964-.361,1.4,1.4,0,0,0,.523-1.264v-.04a1.6,1.6,0,0,0-1.023-1.345A4.662,4.662,0,0,0,7.315,12.25Zm-2.1,1.774c0-.074.073-.272.488-.48a3.709,3.709,0,0,1,1.608-.327,3.709,3.709,0,0,1,1.608.327c.416.208.488.405.488.48,0,.39-.025.45-.122.52a1.423,1.423,0,0,1-.568.192,8.234,8.234,0,0,1-1.406.094,8.234,8.234,0,0,1-1.406-.094,1.424,1.424,0,0,1-.568-.192C5.243,14.474,5.218,14.414,5.218,14.024Z" transform="translate(-1.064 -3.193)" fill="#707070" fill-rule="evenodd"/>
    <path id="Path_82736" data-name="Path 82736" d="M17.315,12.218a.484.484,0,1,0,0-.968H14.734a.484.484,0,0,0,0,.968Z" transform="translate(-4.613 -2.838)" fill="#707070"/>
    <path id="Path_82737" data-name="Path 82737" d="M17.444,8.734a.484.484,0,0,1-.484.484H13.734a.484.484,0,0,1,0-.968H16.96A.484.484,0,0,1,17.444,8.734Z" transform="translate(-4.258 -1.774)" fill="#707070"/>
    <path id="Path_82738" data-name="Path 82738" d="M17.669,15.218a.484.484,0,1,0,0-.968H15.734a.484.484,0,0,0,0,.968Z" transform="translate(-4.967 -3.903)" fill="#707070"/>
    <path id="Path_82739" data-name="Path 82739" d="M6.859,3.25H9.513a23.566,23.566,0,0,1,2.86.1,3.039,3.039,0,0,1,1.852.8A3.04,3.04,0,0,1,15.023,6a23.579,23.579,0,0,1,.1,2.86v.073a23.579,23.579,0,0,1-.1,2.86,3.04,3.04,0,0,1-.8,1.852,3.04,3.04,0,0,1-1.852.8,23.579,23.579,0,0,1-2.86.1H6.859a23.58,23.58,0,0,1-2.86-.1,3.04,3.04,0,0,1-1.852-.8,3.039,3.039,0,0,1-.8-1.852,23.566,23.566,0,0,1-.1-2.86V8.859A23.567,23.567,0,0,1,1.349,6a3.039,3.039,0,0,1,.8-1.852A3.039,3.039,0,0,1,4,3.349,23.567,23.567,0,0,1,6.859,3.25ZM4.128,4.308a2.1,2.1,0,0,0-1.3.524,2.1,2.1,0,0,0-.524,1.3A23.222,23.222,0,0,0,2.218,8.9a23.223,23.223,0,0,0,.09,2.767,2.1,2.1,0,0,0,.524,1.3,2.1,2.1,0,0,0,1.3.524,23.217,23.217,0,0,0,2.767.09H9.476a23.218,23.218,0,0,0,2.767-.09,2.1,2.1,0,0,0,1.3-.524,2.1,2.1,0,0,0,.524-1.3,23.218,23.218,0,0,0,.09-2.767,23.217,23.217,0,0,0-.09-2.767,2.1,2.1,0,0,0-.524-1.3,2.1,2.1,0,0,0-1.3-.524,23.223,23.223,0,0,0-2.767-.09H6.9A23.222,23.222,0,0,0,4.128,4.308Z" fill="#707070" fill-rule="evenodd"/>
  </g>
</svg>
