<svg xmlns="http://www.w3.org/2000/svg" xmlns:xlink="http://www.w3.org/1999/xlink" width="58.242" height="55.921" viewBox="0 0 58.242 55.921">
  <defs>
    <clipPath id="clip-path">
      <rect id="Icon-246_Frame_Clip_Content_Mask_" data-name="Icon-246 [Frame Clip Content Mask]" width="58.242" height="55.921" fill="none"/>
    </clipPath>
  </defs>
  <g id="I-245" transform="translate(0 0)">
    <g id="Icon-246_Clip_Content_" data-name="Icon-246 (Clip Content)" transform="translate(0 0)" clip-path="url(#clip-path)">
      <g id="Group" transform="translate(5.824 4.66)">
        <path id="Vector" d="M32.382,18.116a23.3,23.3,0,0,0,7.385-5.01,23.3,23.3,0,0,0,5.009-7.386,23.267,23.267,0,0,0,1.817-9.087,23.267,23.267,0,0,0-1.817-9.087,23.3,23.3,0,0,0-5.009-7.386,23.3,23.3,0,0,0-7.385-5.01A23.258,23.258,0,0,0,23.3-26.667a23.258,23.258,0,0,0-9.086,1.817,23.3,23.3,0,0,0-7.385,5.01,23.3,23.3,0,0,0-5.009,7.386A23.267,23.267,0,0,0,0-3.366,23.267,23.267,0,0,0,1.817,5.721a23.3,23.3,0,0,0,5.009,7.386,23.3,23.3,0,0,0,7.385,5.01A23.258,23.258,0,0,0,23.3,19.934a23.258,23.258,0,0,0,9.086-1.817Zm-18.5-5.406A18.515,18.515,0,0,1,7.222,6.047,18.167,18.167,0,0,1,4.659-3.366,18.167,18.167,0,0,1,7.222-12.78a18.515,18.515,0,0,1,6.663-6.664A18.16,18.16,0,0,1,23.3-22.007a18.16,18.16,0,0,1,9.412,2.563,18.515,18.515,0,0,1,6.663,6.664,18.167,18.167,0,0,1,2.563,9.413,18.167,18.167,0,0,1-2.563,9.413,18.515,18.515,0,0,1-6.663,6.664A18.16,18.16,0,0,1,23.3,15.274a18.16,18.16,0,0,1-9.412-2.563Zm-.676-7.9a11.567,11.567,0,0,0,4.24,4.241A11.409,11.409,0,0,0,23.3,10.614a11.409,11.409,0,0,0,5.847-1.561,11.566,11.566,0,0,0,4.24-4.241,11.414,11.414,0,0,0,1.561-5.848H30.286a6.892,6.892,0,0,1-.932,3.518,6.869,6.869,0,0,1-2.539,2.54,6.889,6.889,0,0,1-3.518.932,6.889,6.889,0,0,1-3.518-.932,6.869,6.869,0,0,1-2.539-2.54,6.892,6.892,0,0,1-.932-3.518H11.648a11.414,11.414,0,0,0,1.561,5.848ZM16.447-6.722a3.367,3.367,0,0,0,1.025-2.47,3.367,3.367,0,0,0-1.025-2.47,3.366,3.366,0,0,0-2.469-1.025,3.366,3.366,0,0,0-2.469,1.025,3.367,3.367,0,0,0-1.025,2.47,3.367,3.367,0,0,0,1.025,2.47A3.366,3.366,0,0,0,13.978-5.7,3.366,3.366,0,0,0,16.447-6.722Zm18.637,0a3.367,3.367,0,0,0,1.025-2.47,3.367,3.367,0,0,0-1.025-2.47,3.366,3.366,0,0,0-2.469-1.025,3.366,3.366,0,0,0-2.469,1.025,3.367,3.367,0,0,0-1.025,2.47,3.367,3.367,0,0,0,1.025,2.47A3.366,3.366,0,0,0,32.615-5.7,3.366,3.366,0,0,0,35.085-6.722Z" transform="translate(0 26.667)" fill="#707070"/>
      </g>
    </g>
  </g>
</svg>
