<svg xmlns="http://www.w3.org/2000/svg" width="22" height="22" viewBox="0 0 22 22">
  <g id="video-file-2-svgrepo-com" transform="translate(-1 -1)">
    <path id="Path_78135" data-name="Path 78135" d="M10.573,7h0a8.147,8.147,0,0,1,3.841,1.6C15.594,9.419,17,10.68,17,12.04s-1.415,2.619-2.6,3.441a8.334,8.334,0,0,1-3.826,1.607,1.773,1.773,0,0,1-.666-.12C8.623,16.45,8,14.838,8,12.04,8,9.183,8.636,7.566,9.943,7.1A1.852,1.852,0,0,1,10.573,7Zm.037,8.09a7,7,0,0,0,2.617-1.227c1.3-.894,1.763-1.624,1.773-1.82-.007-.193-.458-.921-1.751-1.812A6.8,6.8,0,0,0,10.591,9c-.164.12-.591.835-.591,3.043C10,14.174,10.405,14.928,10.61,15.086Z" fill="#707070"/>
    <path id="Path_78136" data-name="Path 78136" d="M12,23A11,11,0,0,1,4.222,4.222,11,11,0,1,1,19.778,19.778,10.928,10.928,0,0,1,12,23ZM12,3a9,9,0,1,0,9,9A9.01,9.01,0,0,0,12,3Z" fill="#707070"/>
  </g>
</svg>
